<?xml version="1.0" standalone="no"?>
<!DOCTYPE svg PUBLIC "-//W3C//DTD SVG 1.0//EN" "http://www.w3.org/TR/2001/REC-SVG-20010904/DTD/svg10.dtd">
<svg xmlns="http://www.w3.org/2000/svg" xmlns:xlink="http://www.w3.org/1999/xlink" id="body_1" width="249" height="120">

<g transform="matrix(0.16806155 0 0 0.16806155 -0 8.734503)">
	<g>
        <path d="M727.55 250.49L727.47 195.92001C 727.47 189.20001 729.19995 183.96 732.68 180.24002C 736.14996 176.51003 740.83997 174.64001 746.72 174.64001C 752.6 174.63002 757.27997 176.48001 760.77997 180.20001C 764.25995 183.92001 766.00995 189.13 766.01996 195.86002L766.01996 195.86002L766.1 250.43002L796.72 250.39003L796.63995 191.67003C 796.61993 178.35004 793.11993 167.87003 786.14996 160.26003C 779.17 152.64003 769.92 148.85002 758.38995 148.86003C 751.66 148.87003 745.6 150.21004 740.19995 152.85004C 734.80994 155.50003 730.5499 159.05003 727.42993 163.50003L727.42993 163.50003L727.3599 116.89003L696.55994 116.94003L696.75995 250.54004L727.55994 250.49004L727.55 250.49z" stroke="none" fill="#0A214D" fill-rule="nonzero" />
        <path d="M857.42 251.74C 865.57996 251.74 872.95996 250.22 879.57 247.21C 886.16003 244.20001 891.65 240.05 896.03 234.75C 900.4 229.46 903.43005 223.52 905.09 216.91L905.09 216.91L872.31006 216.96C 869.32007 223.45001 863.97003 226.70001 856.29004 226.71C 851.13007 226.71 846.77 225.08 843.23004 221.78001C 839.68005 218.48001 837.66003 213.71002 837.17004 207.47002L837.17004 207.47002L906.88007 207.37001C 907.23004 204.25002 907.4101 201.24 907.4001 198.36002C 907.3901 188.27002 905.2401 179.45001 900.9701 171.90002C 896.7001 164.34003 890.7701 158.52002 883.2101 154.45003C 875.6401 150.38002 866.9901 148.35002 857.2701 148.37003C 847.3001 148.39003 838.4801 150.51003 830.8001 154.72003C 823.1201 158.94003 817.1601 164.94003 812.9101 172.76004C 808.6601 180.57004 806.5401 189.70004 806.5501 200.15004C 806.5701 210.59004 808.7501 219.72003 813.08014 227.51004C 817.41016 235.31004 823.42017 241.31004 831.11017 245.49004C 838.8002 249.69003 847.58014 251.77003 857.42017 251.75003L857.42017 251.75003L857.42 251.74zM843.88995 177.56C 847.42993 174.56 851.77997 173.05 856.93994 173.04C 862.33997 173.03 866.8499 174.57999 870.45996 177.7C 874.05994 180.81999 875.86 185.01 875.86993 190.29L875.86993 190.29L837.32996 190.34999C 838.17 184.82999 840.35 180.56 843.88995 177.54999z" stroke="none" fill="#0A214D" fill-rule="nonzero" />
        <path d="M1031.71 182.87C 1026.59 180.36 1019.95996 177.73 1011.8 174.97C 1003.62 172.34 997.62 169.9 993.76996 167.61C 989.92 165.34 987.9899 162.16 987.9899 158.08C 987.9899 154.36 989.11993 151.5 991.3999 149.52C 993.67993 147.54001 996.67993 146.55 1000.3999 146.54001C 1004.7299 146.54001 1008.2599 147.69 1011.0399 150.04001C 1013.7999 152.37001 1015.2999 155.59001 1015.5499 159.67001L1015.5499 159.67001L1048.8699 159.62001C 1048.2499 147.73001 1043.6699 138.46 1035.1399 131.82C 1026.5999 125.170006 1015.3699 121.86001 1001.4399 121.880005C 987.7499 121.9 976.6499 125.25001 968.1399 131.93001C 959.6199 138.6 955.3699 147.83 955.3999 159.6C 955.3999 167.52 957.2799 173.95001 961.0099 178.87001C 964.73987 183.79001 969.1899 187.49 974.3499 190.01001C 979.5199 192.52 986.17993 195.03001 994.3499 197.54001C 999.9899 199.22 1004.3599 200.71 1007.4199 202.02C 1010.4799 203.35 1013.06995 205.01001 1015.1699 207.05C 1017.2699 209.09 1018.3299 211.67 1018.3399 214.79001C 1018.3399 218.51001 1017.0199 221.43001 1014.3899 223.53001C 1011.7499 225.63002 1008.1399 226.69002 1003.5799 226.70001C 999.1399 226.70001 995.5299 225.48001 992.7599 223.03001C 989.9999 220.56001 988.3699 217.00002 987.8799 212.32L987.8799 212.32L955.09985 212.37001C 955.34985 220.66 957.66986 227.73001 962.0599 233.61002C 966.4499 239.49002 972.3099 243.92001 979.6499 246.91002C 986.9699 249.90002 995.2699 251.39001 1004.5099 251.38002C 1013.98987 251.37003 1022.2099 249.61002 1029.1799 246.12003C 1036.1299 242.62003 1041.44 237.93002 1045.09 232.04002C 1048.74 226.16002 1050.57 219.60002 1050.5599 212.40002C 1050.5599 204.84003 1048.6699 198.65002 1044.95 193.86002C 1041.21 189.07002 1036.7999 185.41002 1031.7 182.89001L1031.7 182.89001L1031.71 182.87z" stroke="none" fill="#0A214D" fill-rule="nonzero" />
        <path d="M1222.06 159.53C 1214.66 151.98 1204.7101 148.20999 1192.2301 148.23C 1185.1401 148.23999 1178.6101 149.98999 1172.6001 153.48C 1166.6001 156.98 1161.8701 161.48999 1158.3901 167.01C 1155.0201 161.01999 1150.3601 156.39 1144.4102 153.15999C 1138.4702 149.93 1131.7102 148.31999 1124.1401 148.32999C 1117.7701 148.32999 1112.0702 149.57999 1107.0402 152.04999C 1102.0001 154.51999 1097.9202 157.85999 1094.8002 162.05998L1094.8002 162.05998L1094.7802 149.44998L1063.9801 149.49998L1064.1301 249.99998L1094.9302 249.94998L1094.8502 195.37997C 1094.8502 188.89998 1096.5502 183.87997 1099.9702 180.32997C 1103.3802 176.77997 1108.0902 174.99997 1114.1002 174.98997C 1120.1002 174.98997 1124.8102 176.74997 1128.2502 180.27997C 1131.6803 183.81996 1133.3903 188.82997 1133.4003 195.30997L1133.4003 195.30997L1133.4802 249.87997L1164.1002 249.82997L1164.0203 195.25998C 1164.0203 188.77998 1165.7202 183.75998 1169.1403 180.20998C 1172.5503 176.65997 1177.2603 174.87997 1183.2703 174.86998C 1189.2803 174.86998 1193.9902 176.62997 1197.4203 180.15997C 1200.8503 183.69997 1202.5703 188.70998 1202.5803 195.18997L1202.5803 195.18997L1202.6603 249.75998L1233.2803 249.70998L1233.2003 190.98997C 1233.1803 177.53998 1229.4603 167.04997 1222.0803 159.48997L1222.0803 159.48997L1222.06 159.53z" stroke="none" fill="#0A214D" fill-rule="nonzero" />
        <path d="M1264.74 105.43C 1259.34 105.43 1254.92 107.04 1251.51 110.22C 1248.1 113.41 1246.39 117.4 1246.4 122.2C 1246.4 126.88 1248.12 130.81999 1251.54 133.98999C 1254.9701 137.16998 1259.38 138.74998 1264.79 138.73999C 1270.0701 138.73999 1274.42 137.13998 1277.8401 133.95C 1281.2601 130.77 1282.9701 126.829994 1282.9601 122.149994C 1282.9501 117.34999 1281.2401 113.369995 1277.8 110.17999C 1274.37 107.009995 1270.02 105.41999 1264.74 105.42999L1264.74 105.42999L1264.74 105.43z" stroke="none" fill="#0A214D" fill-rule="nonzero" />
        <path transform="matrix(0.99999875 -0.0015707959 0.0015707959 0.99999875 -0.3 1.9)"  d="M1249.39 149.2L1280.1901 149.2L1280.1901 249.7L1249.39 249.7z" stroke="none" fill="#0A214D" fill-rule="nonzero" />
        <path d="M1342.18 223.47C 1338.8201 223.47 1336.42 222.82 1334.9701 221.5C 1333.5302 220.18 1332.8 218.02 1332.8 215.02L1332.8 215.02L1332.74 174.68001L1352.91 174.65001L1352.87 149.07L1332.7 149.1L1332.6699 124.61001L1301.8699 124.66001L1301.8999 149.15001L1289.6599 149.17001L1289.7 174.75002L1301.94 174.73001L1302 214.72002C 1302.01 227.09001 1305.15 235.99002 1311.41 241.45001C 1317.66 246.90001 1326.37 249.62001 1337.53 249.6L1337.53 249.6L1353.2001 249.58L1353.17 223.47L1342.18 223.47z" stroke="none" fill="#0A214D" fill-rule="nonzero" />
        <path d="M1464.79 190.68C 1464.77 177.35999 1461.27 166.88998 1454.3 159.28C 1447.3201 151.66 1438.0701 147.86 1426.54 147.88C 1419.81 147.88 1413.75 149.23001 1408.3501 151.87001C 1402.9601 154.52 1398.7001 158.07 1395.5801 162.52L1395.5801 162.52L1395.5101 116.23L1364.7101 116.270004L1364.91 249.55L1395.7101 249.51001L1395.6301 194.94C 1395.6301 188.22 1397.3601 182.98 1400.8401 179.26001C 1404.31 175.54001 1409.0001 173.67001 1414.8801 173.66C 1420.7601 173.66 1425.4402 175.51001 1428.9402 179.22C 1432.4202 182.94 1434.1702 188.16 1434.1802 194.88L1434.1802 194.88L1434.2601 249.45001L1464.8801 249.40001L1464.8002 190.68001L1464.79 190.68z" stroke="none" fill="#0A214D" fill-rule="nonzero" />
        <path d="M622.23 148L622.37 250.65L653.17 250.6L653.03 148L686.52 148L686.52 141.76L686.52 141.76L686.49 117.09L686.47 117.09L686.47 116.99L588.73 116.99L588.73 117.23L588.68 117.23L588.72 141.91L588.73 141.91L588.73 148L622.23 148L622.23 148" stroke="none" fill="#0A214D" fill-rule="nonzero" />
        <path d="M622.39 297.26L622.28 297.26L622.46 423.69L653.26 423.65L653.19 378.63L693.25 378.63L693.25 347.62L653.15 347.62L653.12 327.71L704.68 327.71L704.68 296.7L622.39 296.7L622.39 297.26L622.39 297.26" stroke="none" fill="#0A214D" fill-rule="nonzero" />
        <path d="M784.59 322.95L784.61005 337.19C 781.72003 332.51 777.61005 328.73 772.2601 325.85C 766.9101 322.98 760.7001 321.55002 753.62006 321.57C 745.3301 321.57 737.8301 323.69 731.11005 327.9C 724.3901 332.12 719.09 338.12 715.2001 345.94C 711.31006 353.75 709.37006 362.81 709.38007 373.14C 709.3901 383.47 711.36005 392.57 715.2801 400.42C 719.19006 408.28 724.5201 414.33002 731.25006 418.58002C 737.98004 422.84003 745.43005 424.95 753.5901 424.95C 760.6801 424.94 766.88007 423.49002 772.2301 420.6C 777.5701 417.71 781.7301 413.92 784.7301 409.24002L784.7301 409.24002L784.7501 423.47003L815.5501 423.42004L815.4001 322.92004L784.6001 322.97003L784.59 322.95zM778.30005 391.40002C 774.04004 395.85004 768.86005 398.08002 762.73004 398.10004C 756.60004 398.10004 751.41003 395.86005 747.14 391.36005C 742.87 386.86005 740.73004 380.77005 740.72003 373.09006C 740.72003 365.41006 742.83 359.38007 747.09 354.98004C 751.35004 350.59003 756.54004 348.39005 762.66003 348.39005C 768.79004 348.38004 773.98004 350.59006 778.25006 355.02005C 782.5101 359.46005 784.66003 365.52005 784.67004 373.20004C 784.68005 380.88004 782.55005 386.95004 778.30005 391.40005z" stroke="none" fill="#0A214D" fill-rule="nonzero" />
        <path d="M990.38 332.91C 982.98 325.35 973.03 321.59 960.55 321.6C 953.45996 321.61002 946.92 323.36002 940.92 326.86002C 934.92 330.35 930.19 334.86002 926.70996 340.39C 923.33997 334.39 918.67993 329.77002 912.73 326.54C 906.77997 323.31 900.02997 321.7 892.45996 321.71002C 886.08997 321.72003 880.39996 322.97003 875.36 325.43002C 870.31 327.90002 866.24 331.24002 863.12 335.44003L863.12 335.44003L863.1 322.83005L832.3 322.87006L832.45 423.37006L863.25 423.33005L863.17 368.76004C 863.17 362.28003 864.87 357.26004 868.29 353.71005C 871.69995 350.16006 876.41 348.38007 882.42 348.37006C 888.42 348.37006 893.13 350.13007 896.57 353.66006C 900 357.20007 901.71 362.21005 901.72003 368.69006L901.72003 368.69006L901.80005 423.26007L932.42004 423.22006L932.34 368.65005C 932.34 362.17004 934.04004 357.15005 937.46 353.60007C 940.87 350.06006 945.58 348.28006 951.59 348.26007C 957.60004 348.26007 962.31 350.02008 965.74005 353.55008C 969.17004 357.0901 970.8901 362.10007 970.9 368.58008L970.9 368.58008L970.98004 423.1501L1001.60004 423.1001L1001.51 364.3801C 1001.49 350.93008 997.78 340.4401 990.39 332.8901L990.39 332.8901L990.38 332.91z" stroke="none" fill="#0A214D" fill-rule="nonzero" />
        <path d="M1033.07 278.81C 1027.6699 278.81 1023.24994 280.41998 1019.83997 283.6C 1016.42 286.79 1014.72 290.79 1014.72 295.59C 1014.72 300.27 1016.43994 304.19998 1019.87 307.37C 1023.3 310.56 1027.71 312.13998 1033.12 312.13C 1038.4 312.12 1042.75 310.52002 1046.17 307.34C 1049.5901 304.15 1051.29 300.22 1051.29 295.54C 1051.29 290.74002 1049.5701 286.75 1046.14 283.57C 1042.71 280.39 1038.36 278.80002 1033.08 278.82L1033.08 278.82L1033.07 278.81z" stroke="none" fill="#0A214D" fill-rule="nonzero" />
        <path transform="matrix(0.99999875 -0.0015707959 0.0015707959 0.99999875 -0.56 1.56)"  d="M1017.72 322.57L1048.52 322.57L1048.52 423.07L1017.72 423.07z" stroke="none" fill="#0A214D" fill-rule="nonzero" />
        <path transform="matrix(0.999999 -0.001396263 0.001396263 0.999999 -0.48 1.49)"  d="M1065.42 278.73L1096.2201 278.73L1096.2201 423.01L1065.42 423.01z" stroke="none" fill="#0A214D" fill-rule="nonzero" />
        <path d="M1161.47 385.24L1138.14 322.42L1103.74 322.47L1144.77 419.49L1121.79 470.68L1154.93 470.62L1217.75 322.3L1184.43 322.35L1161.47 385.24L1161.47 385.24" stroke="none" fill="#0A214D" fill-rule="nonzero" />
	</g>
	<g>
        <path d="M30.66 573.96L53.98 573.96L53.98 583.09L19.35 583.09L19.35 514.12L30.66 514.12L30.66 573.96z" stroke="none" fill="#0A214D" fill-rule="nonzero" />
        <path d="M109.94 559.96L68.16 559.96C 68.490005 564.33 70.11 567.83 73.020004 570.48004C 75.93001 573.13007 79.50001 574.45 83.740005 574.45C 89.83 574.45 94.130005 571.9 96.64001 566.81L96.64001 566.81L108.840004 566.81C 107.19 571.84 104.19 575.96 99.86 579.17C 95.53 582.38 90.15 583.98 83.73 583.98C 78.5 583.98 73.82001 582.81 69.69 580.45996C 65.560005 578.11 62.31 574.8 59.960003 570.54C 57.610004 566.26996 56.440002 561.32996 56.440002 555.69995C 56.440002 550.06995 57.58 545.12994 59.86 540.8599C 62.14 536.5899 65.35 533.30994 69.48 530.9899C 73.61 528.6699 78.36 527.51996 83.72 527.51996C 89.08 527.51996 93.48 528.63995 97.51 530.88995C 101.55 533.13995 104.69 536.2999 106.94 540.36993C 109.19 544.43994 110.310005 549.11993 110.310005 554.4099C 110.310005 556.4599 110.18001 558.30994 109.91 559.9599L109.91 559.9599L109.94 559.96zM98.53 550.83C 98.46 546.66003 96.97 543.32 94.06 540.81C 91.149994 538.29 87.54 537.04 83.24 537.04C 79.34 537.04 75.99 538.27997 73.22 540.75995C 70.44 543.2399 68.79 546.6 68.26 550.82996L68.26 550.82996L98.53 550.82996z" stroke="none" fill="#0A214D" fill-rule="nonzero" />
        <path d="M117.93 540.91C 120.21 536.68 123.32 533.38995 127.26 531.04C 131.19 528.69 135.55 527.51996 140.31 527.51996C 144.61 527.51996 148.36 528.36 151.56999 530.05C 154.78 531.74 157.34 533.83997 159.26 536.35L159.26 536.35L159.26 528.41L170.67 528.41L170.67 583.08997L159.26 583.08997L159.26 574.94995C 157.34 577.52997 154.73 579.67993 151.42 581.39996C 148.11 583.11993 144.34 583.98 140.11 583.98C 135.41 583.98 131.11 582.77997 127.21 580.36C 123.31 577.94 120.21 574.57 117.93 570.24C 115.65 565.91 114.51 560.99 114.51 555.5C 114.51 550.01 115.65 545.15 117.93 540.91zM156.93 545.87C 155.37999 543.08997 153.34 540.97 150.82999 539.52C 148.30998 538.07 145.59999 537.34 142.68999 537.34C 139.77998 537.34 137.06999 538.05005 134.54999 539.47003C 132.02998 540.9 129.99998 542.98004 128.44998 545.72003C 126.89998 548.47003 126.11998 551.72003 126.11998 555.50006C 126.11998 559.2801 126.89998 562.5801 128.44998 565.42004C 129.99998 568.27 132.05998 570.43005 134.59998 571.92004C 137.14998 573.41003 139.83998 574.15 142.68997 574.15C 145.53996 574.15 148.30997 573.42004 150.82997 571.97003C 153.33997 570.52 155.37997 568.38 156.92998 565.57C 158.47998 562.76 159.25998 559.47003 159.25998 555.7C 159.25998 551.93 158.47998 548.65 156.92998 545.88z" stroke="none" fill="#0A214D" fill-rule="nonzero" />
        <path d="M200.29 529.85C 203.03 528.3 206.29 527.51996 210.06 527.51996L210.06 527.51996L210.06 539.23L207.18 539.23C 202.75 539.23 199.39 540.35 197.10999 542.6C 194.82999 544.85 193.68999 548.75 193.68999 554.31L193.68999 554.31L193.68999 583.09L182.37999 583.09L182.37999 528.41003L193.68999 528.41003L193.68999 536.35004C 195.33998 533.57 197.54 531.41003 200.29 529.85004L200.29 529.85004L200.29 529.85z" stroke="none" fill="#0A214D" fill-rule="nonzero" />
        <path d="M256.46 530.2C 259.87 531.99 262.53 534.63 264.44998 538.14C 266.37 541.65 267.33 545.88 267.33 550.84L267.33 550.84L267.33 583.09L256.12 583.09L256.12 552.53C 256.12 547.63 254.9 543.88 252.45 541.27C 250 538.66003 246.66 537.35004 242.43 537.35004C 238.19998 537.35004 234.84 538.66003 232.35999 541.27C 229.87999 543.89 228.63998 547.64 228.63998 552.53L228.63998 552.53L228.63998 583.09L217.32999 583.09L217.32999 528.41003L228.63998 528.41003L228.63998 534.66003C 230.48999 532.41003 232.85999 530.66003 235.72998 529.4C 238.60999 528.14 241.66998 527.51 244.90997 527.51C 249.20998 527.51 253.05997 528.4 256.46997 530.19L256.46997 530.19L256.46 530.2z" stroke="none" fill="#0A214D" fill-rule="nonzero" />
        <path d="M314.36 537.64L314.36 567.91003C 314.36 569.96 314.84 571.43005 315.8 572.33C 316.75998 573.22003 318.38998 573.67004 320.71 573.67004L320.71 573.67004L327.66 573.67004L327.66 583.10004L318.73 583.10004C 313.64 583.10004 309.73 581.91003 307.02002 579.53C 304.31003 577.15 302.95 573.28 302.95 567.92004L302.95 567.92004L302.95 537.65L296.5 537.65L296.5 528.42004L302.95 528.42004L302.95 514.82007L314.36002 514.82007L314.36002 528.42004L327.66 528.42004L327.66 537.65L314.36002 537.65L314.36 537.64z" stroke="none" fill="#0A214D" fill-rule="nonzero" />
        <path d="M344.62 580.46C 340.44998 578.11005 337.18 574.80005 334.79 570.54004C 332.41 566.27 331.22 561.33 331.22 555.7C 331.22 550.07 332.44 545.22003 334.89 540.92C 337.34003 536.62 340.68002 533.31 344.91 531C 349.14 528.68 353.87 527.53 359.1 527.53C 364.33002 527.53 369.06 528.69 373.29 531C 377.52002 533.32 380.86002 536.62 383.31 540.92C 385.76 545.22 386.98 550.14996 386.98 555.7C 386.98 561.25006 385.72 566.19 383.21002 570.48004C 380.69003 574.78 377.27002 578.10004 372.94003 580.45C 368.61005 582.8 363.83005 583.97003 358.60004 583.97003C 353.37003 583.97003 348.78003 582.80005 344.61005 580.45L344.61005 580.45L344.62 580.46zM366.8 572.07C 369.34998 570.68 371.41998 568.60004 373 565.82C 374.58002 563.04 375.38 559.67 375.38 555.7C 375.38 551.73004 374.62 548.37 373.1 545.63C 371.58002 542.89 369.56 540.82 367.05002 539.43C 364.53003 538.04 361.82 537.35 358.91 537.35C 356 537.35 353.30002 538.04 350.82 539.43C 348.34 540.82 346.37 542.88 344.92 545.63C 343.47 548.38 342.74002 551.73 342.74002 555.7C 342.74002 561.59 344.24002 566.13 347.26 569.34C 350.27002 572.55005 354.06 574.15 358.62 574.15C 361.53 574.15 364.26 573.45 366.81 572.07z" stroke="none" fill="#0A214D" fill-rule="nonzero" />
        <path d="M394.68 540.91C 396.96 536.68 400.07 533.38995 404.00998 531.04C 407.93997 528.69 412.33 527.51996 417.15997 527.51996C 420.72998 527.51996 424.24997 528.3 427.72998 529.85C 431.19998 531.39996 433.96997 533.47 436.02 536.05L436.02 536.05L436.02 509.65L447.43 509.65L447.43 583.08L436.02 583.08L436.02 574.84C 434.16998 577.48004 431.59998 579.67004 428.33 581.39C 425.06 583.11 421.3 583.97003 417.06998 583.97003C 412.30997 583.97003 407.96 582.77 404.02 580.35004C 400.08 577.93005 396.97 574.56006 394.69 570.23004C 392.41 565.9 391.27 560.98004 391.27 555.49005C 391.27 550.00006 392.41 545.1401 394.69 540.9L394.69 540.9L394.68 540.91zM433.68 545.87C 432.13 543.08997 430.09 540.97 427.58 539.52C 425.06 538.07 422.34998 537.34 419.43997 537.34C 416.52997 537.34 413.81998 538.05005 411.29996 539.47003C 408.77997 540.9 406.74997 542.98004 405.19995 545.72003C 403.64996 548.47003 402.86996 551.72003 402.86996 555.50006C 402.86996 559.2801 403.64996 562.5801 405.19995 565.42004C 406.74994 568.27 408.80994 570.43005 411.34995 571.92004C 413.89993 573.41003 416.58994 574.15 419.43994 574.15C 422.28995 574.15 425.05994 573.42004 427.57996 571.97003C 430.08997 570.52 432.12994 568.38 433.67996 565.57C 435.22995 562.76 436.00995 559.47003 436.00995 555.7C 436.00995 551.93 435.22995 548.65 433.67996 545.88z" stroke="none" fill="#0A214D" fill-rule="nonzero" />
        <path d="M458.79 540.91C 461.07 536.68 464.18002 533.38995 468.12 531.04C 472.05 528.69 476.41 527.51996 481.16998 527.51996C 485.46997 527.51996 489.21997 528.36 492.43 530.05C 495.63998 531.74 498.19998 533.83997 500.12 536.35L500.12 536.35L500.12 528.41L511.53 528.41L511.53 583.08997L500.12 583.08997L500.12 574.94995C 498.19998 577.52997 495.59 579.67993 492.28 581.39996C 488.97 583.11993 485.2 583.98 480.97 583.98C 476.27 583.98 471.97 582.77997 468.07 580.36C 464.17 577.94 461.07 574.57 458.79 570.24C 456.51 565.91 455.37 560.99 455.37 555.5C 455.37 550.01 456.51 545.15 458.79 540.91zM497.79 545.87C 496.24002 543.08997 494.2 540.97 491.69 539.52C 489.17 538.07 486.46 537.34 483.55 537.34C 480.63998 537.34 477.93 538.05005 475.40997 539.47003C 472.88998 540.9 470.86 542.98004 469.30997 545.72003C 467.75998 548.47003 466.97998 551.72003 466.97998 555.50006C 466.97998 559.2801 467.75998 562.5801 469.30997 565.42004C 470.85995 568.27 472.91995 570.43005 475.45996 571.92004C 478.00995 573.41003 480.69995 574.15 483.54996 574.15C 486.39996 574.15 489.16995 573.42004 491.68997 571.97003C 494.19998 570.52 496.23996 568.38 497.78998 565.57C 499.33997 562.76 500.11996 559.47003 500.11996 555.7C 500.11996 551.93 499.33997 548.65 497.78998 545.88z" stroke="none" fill="#0A214D" fill-rule="nonzero" />
        <path d="M572.45 528.41L538.91003 608.79L527.2 608.79L538.31 582.19995L516.77997 528.4199L529.37994 528.4199L544.75995 570.0999L560.7399 528.4199L572.44995 528.4199L572.45 528.41z" stroke="none" fill="#0A214D" fill-rule="nonzero" />
        <path d="M590.22 569.49L578.20996 596.88L570.86993 596.88L577.9199 569.49L590.2199 569.49L590.22 569.49z" stroke="none" fill="#0A214D" fill-rule="nonzero" />
        <path d="M619.24 540.86C 621.52 536.58997 624.68 533.31 628.72 530.99C 632.75995 528.67 637.38995 527.52 642.61 527.52C 649.22 527.52 654.7 529.09 659.02997 532.23004C 663.36 535.38007 666.29 539.86005 667.81 545.68005L667.81 545.68005L655.6 545.68005C 654.61 542.97003 653.01996 540.85004 650.83997 539.3301C 648.66 537.81006 645.91 537.05005 642.6 537.05005C 637.97 537.05005 634.27997 538.69006 631.54 541.96C 628.79 545.23004 627.42 549.82 627.42 555.7C 627.42 561.58 628.79 566.19 631.54 569.49C 634.27997 572.8 637.97 574.45 642.6 574.45C 649.14996 574.45 653.48 571.57 655.6 565.82L655.6 565.82L667.81 565.82C 666.22 571.38 663.24 575.79 658.88 579.07C 654.51 582.34 649.09 583.98 642.61 583.98C 637.38 583.98 632.75 582.81 628.72 580.45996C 624.68 578.11 621.52997 574.8 619.24 570.54C 616.95996 566.26996 615.82 561.32996 615.82 555.69995C 615.82 550.06995 616.96 545.12994 619.24 540.8599L619.24 540.8599L619.24 540.86z" stroke="none" fill="#0A214D" fill-rule="nonzero" />
        <path d="M715.39 530.2C 718.66003 531.99 721.24 534.63 723.13 538.14C 725.02 541.65 725.96 545.88 725.96 550.84L725.96 550.84L725.96 583.09L714.75 583.09L714.75 552.53C 714.75 547.63 713.53 543.88 711.08 541.27C 708.63 538.66003 705.29004 537.35004 701.06 537.35004C 696.82996 537.35004 693.47 538.66003 690.99 541.27C 688.51 543.89 687.27 547.64 687.27 552.53L687.27 552.53L687.27 583.09L675.96 583.09L675.96 509.66003L687.27 509.66003L687.27 534.77C 689.19 532.46 691.62 530.67004 694.56 529.41003C 697.5 528.15 700.73 527.52 704.24 527.52C 708.41 527.52 712.13 528.41003 715.39996 530.2L715.39996 530.2L715.39 530.2z" stroke="none" fill="#0A214D" fill-rule="nonzero" />
        <path d="M736.83 540.91C 739.11005 536.68 742.22003 533.38995 746.16003 531.04C 750.09 528.69 754.45 527.51996 759.21 527.51996C 763.51 527.51996 767.26 528.36 770.47003 530.05C 773.68005 531.74 776.24005 533.83997 778.16003 536.35L778.16003 536.35L778.16003 528.41L789.57 528.41L789.57 583.08997L778.16003 583.08997L778.16003 574.94995C 776.24005 577.52997 773.63 579.67993 770.32 581.39996C 767.01 583.11993 763.24 583.98 759.01 583.98C 754.31 583.98 750.01 582.77997 746.11 580.36C 742.20996 577.94 739.11 574.57 736.82996 570.24C 734.5499 565.91 733.41 560.99 733.41 555.5C 733.41 550.01 734.55 545.15 736.82996 540.91L736.82996 540.91L736.83 540.91zM775.83 545.87C 774.28 543.08997 772.24 540.97 769.73004 539.52C 767.21 538.07 764.50006 537.34 761.59 537.34C 758.68 537.34 755.97003 538.05005 753.45 539.47003C 750.93 540.9 748.9 542.98004 747.35004 545.72003C 745.80005 548.47003 745.02 551.72003 745.02 555.50006C 745.02 559.2801 745.80005 562.5801 747.35004 565.42004C 748.9 568.27 750.96 570.43005 753.50006 571.92004C 756.05005 573.41003 758.74005 574.15 761.5901 574.15C 764.4401 574.15 767.2101 573.42004 769.7301 571.97003C 772.2401 570.52 774.2801 568.38 775.8301 565.57C 777.38007 562.76 778.1701 559.47003 778.1701 555.7C 778.1701 551.93 777.3901 548.65 775.8301 545.88z" stroke="none" fill="#0A214D" fill-rule="nonzero" />
        <path d="M840.43 530.2C 843.83 531.99 846.5 534.63 848.42 538.14C 850.33997 541.65 851.3 545.88 851.3 550.84L851.3 550.84L851.3 583.09L840.08 583.09L840.08 552.53C 840.08 547.63 838.86005 543.88 836.41003 541.27C 833.96 538.66003 830.62006 537.35004 826.39 537.35004C 822.16 537.35004 818.8 538.66003 816.32 541.27C 813.84 543.89 812.60004 547.64 812.60004 552.53L812.60004 552.53L812.60004 583.09L801.28 583.09L801.28 528.41003L812.60004 528.41003L812.60004 534.66003C 814.45 532.41003 816.82 530.66003 819.69006 529.4C 822.5601 528.14 825.63007 527.51 828.87006 527.51C 833.17004 527.51 837.0201 528.4 840.43005 530.19L840.43005 530.19L840.43 530.2z" stroke="none" fill="#0A214D" fill-rule="nonzero" />
        <path d="M895.8 530.05C 899.07 531.74 901.63 533.83997 903.49 536.35L903.49 536.35L903.49 528.41L914.89996 528.41L914.89996 583.98C 914.89996 589.01 913.83997 593.49 911.73 597.43C 909.61 601.36 906.55 604.46 902.55 606.71C 898.55 608.96 893.76996 610.08 888.20996 610.08C 880.8 610.08 874.63995 608.34 869.74994 604.87C 864.8499 601.4 862.06995 596.69 861.4099 590.73L861.4099 590.73L872.6299 590.73C 873.48987 593.57 875.3199 595.88 878.1399 597.63C 880.9499 599.38 884.3099 600.26 888.2099 600.26C 892.7699 600.26 896.4599 598.87 899.2699 596.09C 902.0799 593.31 903.48987 589.28 903.48987 583.98004L903.48987 583.98004L903.48987 574.85004C 901.5699 577.43005 898.96985 579.60004 895.6999 581.35004C 892.4299 583.10004 888.6999 583.98004 884.5399 583.98004C 879.7799 583.98004 875.4199 582.78 871.4899 580.36005C 867.5499 577.94006 864.43994 574.57007 862.1599 570.24005C 859.8799 565.91003 858.7299 560.99005 858.7299 555.50006C 858.7299 550.0101 859.86993 545.1501 862.1599 540.91003C 864.43994 536.68005 867.5499 533.39 871.4899 531.04004C 875.4199 528.69006 879.7799 527.52 884.5399 527.52C 888.7699 527.52 892.5299 528.36005 895.7999 530.05005L895.7999 530.05005L895.8 530.05zM901.16 545.88C 899.61 543.1 897.56995 540.98 895.06 539.53C 892.54 538.08 889.83 537.35004 886.92 537.35004C 884.00995 537.35004 881.3 538.06006 878.77997 539.48004C 876.25995 540.91003 874.23 542.99005 872.68 545.73004C 871.13 548.48004 870.35 551.73004 870.35 555.5101C 870.35 559.2901 871.13 562.5901 872.68 565.43005C 874.23 568.28 876.29 570.44006 878.83 571.93005C 881.38 573.42004 884.07 574.16003 886.91003 574.16003C 889.75006 574.16003 892.53 573.43005 895.05005 571.98004C 897.56006 570.53 899.60004 568.39 901.15 565.58C 902.7 562.77 903.49005 559.48004 903.49005 555.71C 903.49005 551.94 902.71 548.66003 901.15 545.89z" stroke="none" fill="#0A214D" fill-rule="nonzero" />
        <path d="M976.32 559.96L934.54004 559.96C 934.87006 564.33 936.49005 567.83 939.4 570.48004C 942.31 573.13007 945.88 574.45 950.11005 574.45C 956.2001 574.45 960.50006 571.9 963.0101 566.81L963.0101 566.81L975.2101 566.81C 973.56006 571.84 970.56006 575.96 966.2301 579.17C 961.9001 582.38 956.5201 583.98 950.1001 583.98C 944.8701 583.98 940.1901 582.81 936.0601 580.45996C 931.9301 578.11 928.6801 574.8 926.34015 570.54C 923.9902 566.26996 922.8201 561.32996 922.8201 555.69995C 922.8201 550.06995 923.96014 545.12994 926.2401 540.8599C 928.52014 536.5899 931.7301 533.30994 935.8601 530.9899C 940.0001 528.6699 944.7401 527.51996 950.1001 527.51996C 955.4601 527.51996 959.8601 528.63995 963.8901 530.88995C 967.93005 533.13995 971.07007 536.2999 973.32007 540.36993C 975.57007 544.43994 976.69006 549.11993 976.69006 554.4099C 976.69006 556.4599 976.55005 558.30994 976.29004 559.9599L976.29004 559.9599L976.32 559.96zM964.91003 550.83C 964.84 546.66003 963.35004 543.32 960.44006 540.81C 957.5301 538.29 953.92004 537.04 949.63007 537.04C 945.73004 537.04 942.38007 538.27997 939.61005 540.75995C 936.83 543.2399 935.18005 546.6 934.65 550.82996L934.65 550.82996L964.92004 550.82996z" stroke="none" fill="#0A214D" fill-rule="nonzero" />
        <path d="M1020.48 537.64L1020.48 567.91003C 1020.48 569.96 1020.95996 571.43005 1021.92 572.33C 1022.88 573.22003 1024.52 573.67004 1026.83 573.67004L1026.83 573.67004L1033.7799 573.67004L1033.7799 583.10004L1024.8499 583.10004C 1019.7598 583.10004 1015.84985 581.91003 1013.13983 579.53C 1010.4298 577.15 1009.0698 573.28 1009.0698 567.92004L1009.0698 567.92004L1009.0698 537.65L1002.6198 537.65L1002.6198 528.42004L1009.0698 528.42004L1009.0698 514.82007L1020.4798 514.82007L1020.4798 528.42004L1033.7798 528.42004L1033.7798 537.65L1020.4798 537.65L1020.48 537.64z" stroke="none" fill="#0A214D" fill-rule="nonzero" />
        <path d="M1050.74 580.46C 1046.57 578.11005 1043.3 574.80005 1040.92 570.54004C 1038.54 566.27 1037.3501 561.33 1037.3501 555.7C 1037.3501 550.07 1038.5701 545.22003 1041.0201 540.92C 1043.4701 536.62 1046.8102 533.31 1051.0402 531C 1055.2701 528.68 1060.0001 527.53 1065.2301 527.53C 1070.4601 527.53 1075.1901 528.69 1079.42 531C 1083.65 533.32 1086.99 536.62 1089.4401 540.92C 1091.89 545.22 1093.1101 550.14996 1093.1101 555.7C 1093.1101 561.25006 1091.8501 566.19 1089.3401 570.48004C 1086.8201 574.78 1083.4001 578.10004 1079.0701 580.45C 1074.7301 582.8 1069.9501 583.97003 1064.7301 583.97003C 1059.5101 583.97003 1054.9102 582.80005 1050.7401 580.45L1050.7401 580.45L1050.74 580.46zM1072.92 572.07C 1075.4701 570.68 1077.54 568.60004 1079.12 565.82C 1080.71 563.04 1081.5 559.67 1081.5 555.7C 1081.5 551.73004 1080.74 548.37 1079.22 545.63C 1077.7 542.89 1075.6799 540.82 1073.1699 539.43C 1070.6499 538.04 1067.94 537.35 1065.0299 537.35C 1062.1199 537.35 1059.4199 538.04 1056.94 539.43C 1054.46 540.82 1052.49 542.88 1051.0399 545.63C 1049.59 548.38 1048.8599 551.73 1048.8599 555.7C 1048.8599 561.59 1050.3699 566.13 1053.3799 569.34C 1056.3899 572.55005 1060.1799 574.15 1064.7399 574.15C 1067.6499 574.15 1070.3799 573.45 1072.9199 572.07z" stroke="none" fill="#0A214D" fill-rule="nonzero" />
        <path d="M1178.9 530.2C 1182.31 531.99 1184.98 534.63 1186.9401 538.14C 1188.89 541.65 1189.8701 545.88 1189.8701 550.84L1189.8701 550.84L1189.8701 583.09L1178.6602 583.09L1178.6602 552.53C 1178.6602 547.63 1177.4302 543.88 1174.9901 541.27C 1172.5402 538.66003 1169.2001 537.35004 1164.9701 537.35004C 1160.7401 537.35004 1157.3801 538.66003 1154.9001 541.27C 1152.4202 543.89 1151.1802 547.64 1151.1802 552.53L1151.1802 552.53L1151.1802 583.09L1139.9702 583.09L1139.9702 552.53C 1139.9702 547.63 1138.7402 543.88 1136.3002 541.27C 1133.8502 538.66003 1130.5101 537.35004 1126.2802 537.35004C 1122.0502 537.35004 1118.6902 538.66003 1116.2102 541.27C 1113.7302 543.89 1112.4902 547.64 1112.4902 552.53L1112.4902 552.53L1112.4902 583.09L1101.1802 583.09L1101.1802 528.41003L1112.4902 528.41003L1112.4902 534.66003C 1114.3402 532.41003 1116.6902 530.66003 1119.5403 529.4C 1122.3802 528.14 1125.4303 527.51 1128.6703 527.51C 1133.0303 527.51 1136.9403 528.43 1140.3802 530.29004C 1143.8202 532.14 1146.4602 534.82007 1148.3202 538.33C 1149.9702 535.02 1152.5502 532.39 1156.0602 530.44C 1159.5702 528.49 1163.3402 527.52 1167.3801 527.52C 1171.6802 527.52 1175.5302 528.41003 1178.9402 530.2L1178.9402 530.2L1178.9 530.2z" stroke="none" fill="#0A214D" fill-rule="nonzero" />
        <path d="M1210.8 580.46C 1206.63 578.11005 1203.3601 574.80005 1200.9701 570.54004C 1198.5901 566.27 1197.4001 561.33 1197.4001 555.7C 1197.4001 550.07 1198.6201 545.22003 1201.0702 540.92C 1203.5201 536.62 1206.8602 533.31 1211.0902 531C 1215.3302 528.68 1220.0602 527.53 1225.2802 527.53C 1230.5001 527.53 1235.2401 528.69 1239.4701 531C 1243.7001 533.32 1247.04 536.62 1249.4901 540.92C 1251.9401 545.22 1253.1602 550.14996 1253.1602 555.7C 1253.1602 561.25006 1251.9001 566.19 1249.3901 570.48004C 1246.8701 574.78 1243.4502 578.10004 1239.1201 580.45C 1234.7902 582.8 1230.0101 583.97003 1224.7802 583.97003C 1219.5502 583.97003 1214.9602 582.80005 1210.7902 580.45L1210.7902 580.45L1210.8 580.46zM1232.9801 572.07C 1235.5302 570.68 1237.6001 568.60004 1239.18 565.82C 1240.77 563.04 1241.56 559.67 1241.56 555.7C 1241.56 551.73004 1240.8 548.37 1239.28 545.63C 1237.76 542.89 1235.74 540.82 1233.22 539.43C 1230.7 538.04 1227.99 537.35 1225.08 537.35C 1222.1699 537.35 1219.47 538.04 1216.99 539.43C 1214.51 540.82 1212.54 542.88 1211.09 545.63C 1209.64 548.38 1208.9099 551.73 1208.9099 555.7C 1208.9099 561.59 1210.4099 566.13 1213.4299 569.34C 1216.44 572.55005 1220.23 574.15 1224.7899 574.15C 1227.7 574.15 1230.4299 573.45 1232.9799 572.07z" stroke="none" fill="#0A214D" fill-rule="nonzero" />
        <path d="M1279.12 529.85C 1281.86 528.3 1285.12 527.51996 1288.9 527.51996L1288.9 527.51996L1288.9 539.23L1286.02 539.23C 1281.59 539.23 1278.23 540.35 1275.9501 542.6C 1273.67 544.85 1272.53 548.75 1272.53 554.31L1272.53 554.31L1272.53 583.09L1261.2101 583.09L1261.2101 528.41003L1272.53 528.41003L1272.53 536.35004C 1274.18 533.57 1276.38 531.41003 1279.13 529.85004L1279.13 529.85004L1279.12 529.85z" stroke="none" fill="#0A214D" fill-rule="nonzero" />
        <path d="M1314.05 529.85C 1316.79 528.3 1320.05 527.51996 1323.8201 527.51996L1323.8201 527.51996L1323.8201 539.23L1320.9401 539.23C 1316.51 539.23 1313.15 540.35 1310.8701 542.6C 1308.5901 544.85 1307.4401 548.75 1307.4401 554.31L1307.4401 554.31L1307.4401 583.09L1296.13 583.09L1296.13 528.41003L1307.4401 528.41003L1307.4401 536.35004C 1309.0901 533.57 1311.29 531.41003 1314.04 529.85004L1314.04 529.85004L1314.05 529.85z" stroke="none" fill="#0A214D" fill-rule="nonzero" />
        <path d="M1340.79 580.46C 1336.62 578.11005 1333.3501 574.80005 1330.9701 570.54004C 1328.5901 566.27 1327.4001 561.33 1327.4001 555.7C 1327.4001 550.07 1328.6201 545.22003 1331.0702 540.92C 1333.5201 536.62 1336.8602 533.31 1341.0902 531C 1345.3202 528.68 1350.0502 527.53 1355.2802 527.53C 1360.5101 527.53 1365.2401 528.69 1369.4701 531C 1373.7001 533.32 1377.04 536.62 1379.4901 540.92C 1381.9401 545.22 1383.1602 550.14996 1383.1602 555.7C 1383.1602 561.25006 1381.9001 566.19 1379.3901 570.48004C 1376.8701 574.78 1373.4502 578.10004 1369.1201 580.45C 1364.7802 582.8 1360.0001 583.97003 1354.7802 583.97003C 1349.5602 583.97003 1344.9602 582.80005 1340.7902 580.45L1340.7902 580.45L1340.79 580.46zM1362.9701 572.07C 1365.5201 570.68 1367.5901 568.60004 1369.17 565.82C 1370.76 563.04 1371.55 559.67 1371.55 555.7C 1371.55 551.73004 1370.79 548.37 1369.27 545.63C 1367.75 542.89 1365.73 540.82 1363.22 539.43C 1360.7 538.04 1357.99 537.35 1355.08 537.35C 1352.1699 537.35 1349.47 538.04 1346.99 539.43C 1344.51 540.82 1342.54 542.88 1341.09 545.63C 1339.64 548.38 1338.9099 551.73 1338.9099 555.7C 1338.9099 561.59 1340.4199 566.13 1343.4299 569.34C 1346.44 572.55005 1350.23 574.15 1354.7899 574.15C 1357.7 574.15 1360.4299 573.45 1362.97 572.07z" stroke="none" fill="#0A214D" fill-rule="nonzero" />
        <path d="M1464.63 528.41L1447.66 583.08997L1435.75 583.08997L1424.74 542.69995L1413.72 583.08997L1401.82 583.08997L1384.75 528.41L1396.26 528.41L1407.67 572.37L1419.28 528.41L1431.0901 528.41L1442.2101 572.17L1453.5201 528.41L1464.6301 528.41L1464.63 528.41z" stroke="none" fill="#0A214D" fill-rule="nonzero" />
        <path d="M1469.3 581.7C 1467.91 580.31 1467.2201 578.59 1467.2201 576.54004C 1467.2201 574.49005 1467.92 572.77 1469.3 571.38007C 1470.6901 569.99005 1472.41 569.30005 1474.4601 569.30005C 1476.5101 569.30005 1478.1301 570.00006 1479.5201 571.38007C 1480.9102 572.7701 1481.6001 574.49005 1481.6001 576.54004C 1481.6001 578.59 1480.9102 580.31006 1479.5201 581.7C 1478.1301 583.09 1476.4402 583.78 1474.4601 583.78C 1472.48 583.78 1470.6901 583.09 1469.3 581.7z" stroke="none" fill="#0A214D" fill-rule="nonzero" />
	</g>
	<g>
        <path d="M198.56 446.19C 158.56 434.2 96.79 410.46 33.59999 407.19C 16.40999 406.3 19.82999 391.37 19.82999 374.15C 19.82999 328.57 19.82999 216.62 19.82999 173.93999C 19.82999 165.31999 26.87999 158.12 35.48999 158.12C 96.69999 158.12 163.19998 175.67 207.93999 187.78C 234.49998 194.97 234.12999 221.26 234.12999 249.37L234.12999 249.37L235.05998 432.84998C 235.05998 451.34998 238.84998 458.27 198.55998 446.18997L198.55998 446.18997L198.56 446.19z" stroke="none" fill="#0A214D" fill-rule="nonzero" />
        <path d="M165.06 165.06C 176.31999 153.56999 183.26999 137.84 183.26999 120.479996C 183.26999 85.28999 154.73999 56.769997 119.55999 56.769997C 84.37999 56.769997 55.84999 85.299995 55.84999 120.479996C 55.84999 130.29 58.069992 139.58 62.02999 147.87999C 98.03999 150.43999 134.25 157.65 165.06 165.06z" stroke="none" fill="#DA1710" fill-rule="nonzero" />
        <path d="M261.14 453.54C 270.67 452.67 431.56 435.92 484.38 387.82C 492.71 380.23 501.67 369.31 501.67 358.04L501.67 358.04L503.07 131.85C 504.30002 119.700005 490.97 110.880005 481.5 116.61001C 394.82 169 327.72998 169.71 278.28 183.6C 241.05 194.06001 246.31 222.64001 246.31 261.32L246.31 261.32L246.31 431.36C 246.31 448.43 244.14 455.09998 261.13998 453.55L261.13998 453.55L261.14 453.54z" stroke="none" fill="#0A214D" fill-rule="nonzero" />
        <path d="M330.38 160.9C 364.4 154.09999 404.5 144.67 450.44 121.079994C 455.28 110.329994 458 98.42 458 85.869995C 458 38.44 419.55 0 372.13 0C 324.71002 0 286.26 38.44 286.26 85.87C 286.26 118.14 304.07 146.23001 330.38 160.9z" stroke="none" fill="#DA1710" fill-rule="nonzero" />
        <path d="M502.62 202.9L502.25 236.10999L502.25 264.62C 495.95 260.44998 489.43 254.37 486.76 247.54L486.76 247.54L480.72 232.06999C 479.76 229.60999 477.13 228.15 474.48 228.74998C 471.55002 229.40999 469.71002 232.30998 470.37003 235.23999L470.37003 235.23999L475.81003 259.53998L421.87003 242.24997C 419.02002 241.33997 415.97003 242.90997 415.05002 245.75996C 414.19003 248.43996 415.54 251.29996 418.07 252.38997L418.07 252.38997L461.25 271.11996C 461.62 271.27997 461.8 271.69995 461.66 272.07996C 461.52 272.45996 461.1 272.65994 460.72 272.53995L460.72 272.53995L408.31 256.01996C 405.69 255.17996 402.79 256.45996 401.68 259.04996C 400.5 261.79996 401.77 264.98996 404.52 266.16995L404.52 266.16995L454.12 287.23996C 454.49 287.39996 454.66998 287.81995 454.53 288.19995C 454.38998 288.57996 453.97 288.77994 453.59 288.65994L453.59 288.65994L409.4 274.10995C 406.78 273.26996 403.88 274.54996 402.77 277.13995C 401.59 279.88995 402.86 283.07996 405.61 284.25995L405.61 284.25995L449.15997 302.94995C 449.52997 303.10995 449.70996 303.52994 449.56998 303.90994C 449.42996 304.28995 449.00998 304.48993 448.62997 304.36993L448.62997 304.36993L410.49 292.19992C 407.87 291.35992 404.97 292.63992 403.86 295.22992C 402.68 297.97992 403.94998 301.16992 406.69998 302.3499C 423.52997 306.8699 443.74997 332.00992 501.88998 320.0899C 501.88998 320.0899 502.53 319.72992 503.61 319.0799C 506.21997 317.5199 511.12997 314.4199 514.33997 311.4799C 523.17 303.37988 531.98 290.5399 531.98 273.90988C 531.98 248.71988 525.31 228.26988 502.61 202.93988L502.61 202.93988L502.62 202.9z" stroke="none" fill="#DA1710" fill-rule="nonzero" />
        <path d="M82.57 267.64C 84.37 266.87003 85.21 264.78003 84.43 262.98C 83.7 261.29 81.8 260.45 80.09 261L80.09 261L51.139996 270.53C 50.889996 270.61 50.619995 270.48 50.519997 270.23C 50.42 269.98 50.549995 269.7 50.789997 269.6L50.789997 269.6L83.28 255.8C 85.08 255.03 85.92 252.94 85.14 251.14C 84.409996 249.45 82.51 248.61 80.8 249.16L80.8 249.16L46.47 259.98C 46.22 260.06 45.95 259.93002 45.850002 259.68002C 45.760002 259.43002 45.88 259.15002 46.120003 259.05002L46.120003 259.05002L74.4 246.78001C 76.060005 246.07 76.94 244.19002 76.380005 242.44002C 75.78001 240.57002 73.78001 239.54002 71.920006 240.14001L71.920006 240.14001L36.590004 251.47002L40.160004 235.55002C 40.590004 233.63002 39.380005 231.73001 37.470005 231.30002C 35.730003 230.91002 34.010006 231.87003 33.380005 233.48001L33.380005 233.48001L29.420006 243.61002C 27.530006 248.45001 24.090006 252.40001 19.820005 255.10002L19.820005 255.10002L19.820005 234.83002L19.820005 212.47002C 4.69 229.33 0 243.19 0 259.97C 0 274.32 9.66 284.43 16.58 288.94C 17.5 289.54 18.38 290.14 19.71 290.58002L19.71 290.58002L19.82 290.61002C 57.96 298.46002 70.82 282.45 81.85 279.49002C 83.65 278.72003 84.49 276.63004 83.71 274.83002C 82.979996 273.14 81.08 272.30002 79.369995 272.85L79.369995 272.85L54.389996 280.82C 54.139996 280.9 53.869995 280.77002 53.769997 280.52002C 53.679996 280.27002 53.799995 279.99002 54.039997 279.89L54.039997 279.89L82.57 267.64z" stroke="none" fill="#DA1710" fill-rule="nonzero" />
	</g>
</g>
</svg>